<svg width="28" height="28" viewBox="0 0 28 28" fill="none" xmlns="http://www.w3.org/2000/svg">
<path d="M22.2743 7.56133C20.9443 8.5343 16.6064 11.8732 15.9085 13.1975C15.5605 13.8358 15.6367 14.7006 15.6367 15.4844C18.7743 15.921 25.517 10.3971 22.2743 7.55925V7.56133Z" fill="#1B1B1B"/>
<path d="M8.77879 13.1788C9.9029 15.4366 11.0229 17.6923 12.1367 19.9418C12.3426 20.264 14.1276 22.4927 14.1276 22.4927H15.0314C15.2846 21.8462 15.5111 20.921 15.332 20.131L13.9258 17.2578C12.6452 14.3326 10.4114 8.30561 7.92026 6.22869C7.10085 5.5447 5.98703 5.5052 4.77233 5.43035C4.45116 6.34511 4.39145 8.00208 4.79704 8.89605C5.56292 10.5821 7.7782 11.6383 8.77673 13.1809L8.77879 13.1788Z" fill="#1B1B1B"/>
<path d="M0 0V27.921H27.6499V0H0ZM25.5231 25.7734H2.12676V2.14761H25.5231V25.7734Z" fill="#1B1B1B"/>
</svg>
